<svg width="86" height="24" viewBox="0 0 86 24" fill="none" xmlns="http://www.w3.org/2000/svg">
<path d="M28.9068 12.1412V2.3216C28.9068 0.479267 26.8612 -0.626641 25.3197 0.38233L17.3189 5.61918C16.6047 6.08667 15.6913 6.12374 14.9416 5.71566L5.42413 0.535505C3.95386 -0.264733 2.14612 0.709752 2.00644 2.37785L1.20813 11.9115C1.13755 12.7543 1.53167 13.5687 2.23643 14.0363L8.97612 18.5078C9.35596 18.7598 9.80167 18.8942 10.2575 18.8942H20.859C21.3725 18.8942 21.8715 18.7237 22.2777 18.4093L28.0077 13.974C28.5748 13.5351 28.9068 12.8583 28.9068 12.1412Z" fill="#B9DCAE"/>
<path d="M30.116 16.6597V5.98628C30.116 3.98375 27.8925 2.78167 26.217 3.87838L17.5206 9.5706C16.7442 10.0787 15.7514 10.119 14.9365 9.67548L4.59143 4.04488C2.99331 3.17505 1.02837 4.23428 0.876542 6.04743L0.00881253 16.4101C-0.0678984 17.3262 0.360487 18.2114 1.12653 18.7196L8.45229 23.58C8.86515 23.8539 9.34962 24 9.84508 24H21.3684C21.9266 24 22.469 23.8146 22.9105 23.4729L29.1388 18.652C29.7552 18.1748 30.116 17.4392 30.116 16.6597Z" fill="#567D4A"/>
<path fill-rule="evenodd" clip-rule="evenodd" d="M15.6052 22.2198L15.6052 11.3364L16.8145 11.3364L16.8145 22.2198L15.6052 22.2198Z" fill="#F6FFF4"/>
<path d="M39.791 20.7798V3.85007H43.6607V20.7798H39.791Z" fill="#0B0C0B"/>
<path d="M53.5349 8.34853C54.8167 8.34853 55.905 8.78387 56.7515 9.67872C57.6222 10.5736 58.0575 11.7828 58.0575 13.3549V20.7798H54.4297V13.887C54.4297 12.46 53.5591 11.6861 52.3256 11.6861C50.947 11.6861 50.0764 12.5326 50.0764 14.1772V20.7798H46.4486V8.68713H50.0764V9.82383C50.8019 8.83224 51.9628 8.34853 53.5349 8.34853Z" fill="#0B0C0B"/>
<path d="M67.6351 8.68713V12.1698H65.144V16.4506C65.144 17.418 65.8696 17.5873 67.6351 17.4906V20.7798C65.3375 21.0216 63.7412 20.804 62.8464 20.1268C61.9515 19.4254 61.5162 18.2161 61.5162 16.4506V12.1698H59.5814V8.68713H61.5162V6.38952L65.144 5.30119V8.68713H67.6351Z" fill="#0B0C0B"/>
<path d="M73.0267 6.99416C72.1802 7.84064 70.8258 7.84064 69.9552 6.99416C69.1087 6.12349 69.1087 4.76911 69.9552 3.92263C70.8258 3.05196 72.1802 3.05196 73.0267 3.92263C73.8974 4.76911 73.8974 6.12349 73.0267 6.99416ZM73.3169 20.7798H69.6891V8.68713H73.3169V20.7798Z" fill="#0B0C0B"/>
<path d="M79.5994 20.7798H75.9716V3.12451H79.5994V20.7798Z" fill="#0B0C0B"/>
<path d="M85.8819 20.7798H82.2541V3.12451H85.8819V20.7798Z" fill="#0B0C0B"/>
</svg>
